<svg width="24" height="24" viewBox="0 0 24 24" fill="none" xmlns="http://www.w3.org/2000/svg">
<path d="M12.042 19.0967H3.25C2.69772 19.0967 2.25 18.649 2.25 18.0967V12.1904C2.25 10.8234 2.38765 9.0515 3.4707 7.58496C4.78872 5.80049 7.38207 3.71203 12.041 3.71191C16.7 3.71203 19.2943 5.80049 20.6123 7.58496C21.6954 9.0515 21.833 10.8234 21.833 12.1904V18.0967C21.833 18.649 21.3853 19.0967 20.833 19.0967H12.042Z" fill="white"/>
<path d="M12.041 5.21289C16.1741 5.21289 18.3388 7.03261 19.4053 8.47656C20.1846 9.53188 20.333 10.8785 20.333 12.1904V17.3467C20.333 17.4846 20.2209 17.5964 20.083 17.5967H16.2852V12.3662C16.2852 11.814 15.8373 11.3664 15.2852 11.3662H8.71484C8.16263 11.3663 7.71484 11.814 7.71484 12.3662V17.5967H4C3.862 17.5966 3.75 17.4847 3.75 17.3467V12.1904C3.75 10.8785 3.89837 9.53189 4.67773 8.47656C5.74418 7.03266 7.90826 5.21299 12.041 5.21289ZM9.25781 8.30273C9.11981 8.30282 9.00781 8.41471 9.00781 8.55273V9.35547C9.00781 9.49349 9.11981 9.60539 9.25781 9.60547H14.8252C14.9632 9.60535 15.0752 9.49347 15.0752 9.35547V8.55273C15.0752 8.41473 14.9632 8.30285 14.8252 8.30273H9.25781Z" fill="#DC3545"/>
<path d="M8.715 12.8662C8.715 12.5901 8.93885 12.3662 9.215 12.3662H14.785C15.0611 12.3662 15.285 12.5901 15.285 12.8662V17.5969H8.715V12.8662Z" fill="#642128"/>
</svg>
