<svg width="24" height="24" viewBox="0 0 24 24" fill="none" xmlns="http://www.w3.org/2000/svg">
<path d="M12.042 19.5967H3.25C2.69772 19.5967 2.25 19.149 2.25 18.5967V12.6904C2.25 11.3234 2.38765 9.5515 3.4707 8.08496C4.78872 6.30049 7.38207 4.21203 12.041 4.21191C16.7 4.21203 19.2943 6.30049 20.6123 8.08496C21.6954 9.5515 21.833 11.3234 21.833 12.6904V18.5967C21.833 19.149 21.3853 19.5967 20.833 19.5967H12.042Z" fill="white"/>
<path d="M12.041 5.71289C16.1741 5.71289 18.3388 7.53261 19.4053 8.97656C20.1846 10.0319 20.333 11.3785 20.333 12.6904V17.8467C20.333 17.9846 20.2209 18.0964 20.083 18.0967H16.2852V12.8662C16.2852 12.314 15.8373 11.8664 15.2852 11.8662H8.71484C8.16263 11.8663 7.71484 12.314 7.71484 12.8662V18.0967H4C3.862 18.0966 3.75 17.9847 3.75 17.8467V12.6904C3.75 11.3785 3.89837 10.0319 4.67773 8.97656C5.74418 7.53266 7.90826 5.71299 12.041 5.71289ZM9.25781 8.80273C9.11981 8.80282 9.00781 8.91471 9.00781 9.05273V9.85547C9.00781 9.99349 9.11981 10.1054 9.25781 10.1055H14.8252C14.9632 10.1054 15.0752 9.99347 15.0752 9.85547V9.05273C15.0752 8.91473 14.9632 8.80285 14.8252 8.80273H9.25781Z" fill="#2196F3"/>
<path d="M8.715 13.3662C8.715 13.0901 8.93885 12.8662 9.215 12.8662H14.785C15.0611 12.8662 15.285 13.0901 15.285 13.3662V18.0969H8.715V13.3662Z" fill="#07365B"/>
</svg>
