<svg width="24" height="24" viewBox="0 0 24 24" fill="none" xmlns="http://www.w3.org/2000/svg">
<path d="M7.46973 1.50195C8.33784 1.50195 9.07235 2.05552 9.34961 2.82617C10.9094 3.28585 12.299 4.11387 13.4775 4.78711C15.0481 5.68426 16.3014 6.34458 17.625 6.45508C18.5949 6.53614 19.5 7.33444 19.5 8.4707V14.3984C19.5 15.4675 18.607 16.4758 17.375 16.373C15.2908 16.1991 13.4786 15.1729 11.9854 14.3213C11.0657 13.7968 10.2528 13.334 9.46973 12.9922V18.916C10.0671 19.2619 10.4697 19.9066 10.4697 20.6465C10.4697 21.7511 9.5743 22.6465 8.46973 22.6465H6.46875C5.36582 22.6458 4.46973 21.7517 4.46973 20.6465C4.46973 19.9061 4.87265 19.2618 5.46973 18.916V3.50098C5.47078 2.39852 6.36553 1.50264 7.46973 1.50195Z" fill="white"/>
<path d="M7 4.4707C7 4.19456 7.22471 3.96875 7.49996 3.9909C11.1301 4.28314 13.936 7.65226 17.5001 7.94975C17.7753 7.97272 18 8.19456 18 8.4707V14.3987C18 14.6748 17.7753 14.9007 17.5001 14.8777C13.9352 14.5804 11.1138 11.2125 7.49993 10.9191C7.22469 10.8967 7 10.6748 7 10.3987V4.4707Z" fill="#DC3545"/>
<rect x="5.97" y="20.1465" width="3" height="1" rx="0.5" fill="#642128"/>
<rect x="6.97" y="3.00244" width="1" height="18.144" rx="0.5" fill="#642128"/>
</svg>
