<svg width="56" height="56" viewBox="0 0 56 56" fill="none" xmlns="http://www.w3.org/2000/svg">
<path d="M28.3359 1.83203L31.335 7.83105L31.5283 8.21777L31.1191 8.35449L28.1191 9.35547L28 9.39551L27.8818 9.35547L24.4717 8.21875L27.665 1.83203L28 1.16113L28.3359 1.83203Z" fill="black" stroke="black" stroke-width="0.75"/>
<path fill-rule="evenodd" clip-rule="evenodd" d="M25 8L28 2L31 8L28 9V7.75V6.5L25 8Z" fill="white"/>
<path fill-rule="evenodd" clip-rule="evenodd" d="M28 6.5V7.75V9L31 8L28 6.5Z" fill="#C3C3C3"/>
<path d="M31 8L28 2L28 6.5L31 8Z" fill="#D7D7D7"/>
<path fill-rule="evenodd" clip-rule="evenodd" d="M25 8L28 6.5V7.75V9L25 8Z" fill="#D7D7D7"/>
</svg>
