<svg width="56" height="56" viewBox="0 0 56 56" fill="none" xmlns="http://www.w3.org/2000/svg">
<path fill-rule="evenodd" clip-rule="evenodd" d="M30.0322 17.9463C31.2307 18.0685 32.1762 19.0381 32.2666 20.2451C32.3827 20.2285 32.5015 20.2178 32.6221 20.2178H36.4551C37.2941 20.218 38.0722 20.6387 38.5332 21.3281L38.6211 21.4697L40.7773 25.2139L41.7168 25.4248C42.7872 25.6641 43.5675 26.5695 43.6611 27.6465L43.6709 27.8643V30.3369C44.0918 30.7492 44.3691 31.3096 44.415 31.9355L44.4219 32.6211C44.421 33.9995 43.3031 35.1199 41.9219 35.1201L41.3643 35.1152C40.7748 36.7665 39.2372 37.9676 37.4062 38.0605L37.1777 38.0664C35.2469 38.0663 33.604 36.835 32.9902 35.1152H23.8955C23.3058 36.7668 21.7671 37.9676 19.9365 38.0605L19.708 38.0664C17.7778 38.0661 16.1346 36.8355 15.5205 35.1162C14.8236 35.1161 13.9291 34.9304 13.3945 34.1982C12.9498 33.5888 12.9501 32.8897 12.9502 32.6307L12.9502 32.6191V31.2881C12.1378 30.8754 11.5781 30.0348 11.5781 29.0605V20.4326L11.5918 20.1777C11.7202 18.918 12.7846 17.9344 14.0781 17.9336L30.0322 17.9463Z" fill="white"/>
<path fill-rule="evenodd" clip-rule="evenodd" d="M19.7075 30.6768C21.3342 30.6768 22.6537 31.9948 22.6538 33.6211C22.6538 35.2475 21.3343 36.5664 19.7075 36.5664C18.0809 36.5662 16.7622 35.2474 16.7622 33.6211C16.7624 31.9949 18.081 30.677 19.7075 30.6768ZM19.7075 32.249C18.9499 32.2493 18.3356 32.8636 18.3354 33.6211C18.3354 34.3787 18.9498 34.9929 19.7075 34.9932C20.4654 34.9931 21.0806 34.3788 21.0806 33.6211C21.0804 32.8635 20.4653 32.2491 19.7075 32.249Z" fill="black"/>
<path fill-rule="evenodd" clip-rule="evenodd" d="M37.1772 30.6768C38.8039 30.6768 40.1224 31.9948 40.1226 33.6211C40.1226 35.2475 38.804 36.5664 37.1772 36.5664C35.5505 36.5663 34.2319 35.2475 34.2319 33.6211C34.2321 31.9948 35.5506 30.6768 37.1772 30.6768ZM37.1772 32.249C36.4195 32.2491 35.8053 32.8635 35.8052 33.6211C35.8052 34.3788 36.4194 34.9931 37.1772 34.9932C37.9351 34.9931 38.5493 34.3788 38.5493 33.6211C38.5492 32.8635 37.9351 32.2491 37.1772 32.249Z" fill="black"/>
<path fill-rule="evenodd" clip-rule="evenodd" d="M29.7759 19.4336C30.3278 19.4338 30.7756 19.8817 30.7759 20.4336V30.6973C30.7761 30.9314 30.9665 31.1211 31.2007 31.1211C31.4349 31.1211 31.6243 30.9314 31.6245 30.6973V28.0098C31.6233 27.9895 31.6216 27.9688 31.6216 27.9482V22.7178C31.6217 22.1658 32.0706 21.718 32.6226 21.7178H36.4546C36.8121 21.7178 37.1423 21.9091 37.3208 22.2188L39.7515 26.4395C39.7864 26.5 39.8454 26.5432 39.9136 26.5586L41.3882 26.8887C41.8453 26.9907 42.1704 27.396 42.1704 27.8643V30.959C42.1704 31.0732 42.25 31.1705 42.353 31.2197C42.6894 31.3805 42.9213 31.7233 42.9214 32.1211V32.6201C42.921 33.172 42.4735 33.6201 41.9214 33.6201H41.4458C41.3081 33.6199 41.1976 33.5076 41.189 33.3701C41.0598 31.2675 39.3125 29.6008 37.1772 29.6006C35.042 29.6008 33.2956 31.2676 33.1665 33.3701C33.1579 33.5078 33.0466 33.6201 32.9087 33.6201H23.9761C23.8383 33.6199 23.7279 33.5076 23.7192 33.3701C23.5901 31.2674 21.8429 29.6006 19.7075 29.6006C17.5687 29.6008 15.8206 31.2733 15.6968 33.3809C15.6889 33.5126 15.5818 33.6201 15.4497 33.6201C14.5328 33.62 14.4497 33.1368 14.4497 32.6191V30.3105C14.4496 30.1726 14.3377 30.0605 14.1997 30.0605H14.0786C13.5266 30.0603 13.0786 29.6126 13.0786 29.0605V20.4336C13.0789 19.8818 13.5267 19.4339 14.0786 19.4336H29.7759ZM33.3159 22.9648C33.1794 22.9669 33.069 23.0783 33.0688 23.2148V26.0713C33.069 26.2097 33.1824 26.3219 33.3208 26.3213L37.6704 26.2881C37.8616 26.2863 37.9797 26.0789 37.8843 25.9131L36.313 23.1826C36.2225 23.0262 36.0543 22.9304 35.8735 22.9326L33.3159 22.9648Z" fill="black"/>
</svg>
