<svg width="56" height="56" viewBox="0 0 56 56" fill="none" xmlns="http://www.w3.org/2000/svg">
<path d="M29.4717 14.6083C28.35 14.2373 27.1136 14.7072 26.5234 15.7323L26.4072 15.9609L24.8477 19.4433C24.049 19.4026 23.2611 19.783 22.8096 20.4843L22.6934 20.6874C22.2344 21.59 22.4341 22.6522 23.1094 23.3329L18.2344 34.2353H16.8828C15.5882 34.2353 14.5242 35.2191 14.3955 36.4784L14.3828 36.7343V37.581C14.383 38.9615 15.5022 40.081 16.8828 40.081H25.7637C27.1442 40.081 28.2634 38.9615 28.2637 37.581V36.7343C28.2629 35.4581 27.3054 34.4052 26.0684 34.2548L28.7207 28.3241L32.5049 35.5986C31.9634 36.0053 31.5917 36.6262 31.5195 37.3359L31.5068 37.5907C31.5072 38.9656 32.6216 40.0802 33.9961 40.081H37.9336C39.223 40.0808 40.2832 39.1007 40.4111 37.8456L40.4238 37.5907C40.4236 36.2172 39.3105 35.0997 37.9336 35.0995H37.8604L32.6357 25.0556C32.7413 24.7209 32.8007 24.3634 32.8008 23.9911C32.8007 23.016 32.4092 22.1345 31.7773 21.4921L32.9443 18.8847C33.4722 17.7031 33.009 16.3295 31.9111 15.6982L31.6826 15.5819L29.71 14.7001L29.4717 14.6083Z" fill="white"/>
<path fill-rule="evenodd" clip-rule="evenodd" d="M27.7764 16.574C28.0019 16.0701 28.5936 15.8447 29.0977 16.0701L31.0703 16.952C31.5744 17.1774 31.8005 17.7692 31.5752 18.2733L29.8926 22.0321C30.7108 22.3075 31.3008 23.0799 31.3008 23.991C31.3008 24.4024 31.1779 24.7842 30.9707 25.1063L36.9492 36.5994H37.9336C38.4806 36.5995 38.9238 37.0436 38.9238 37.5906C38.9237 38.1376 38.4805 38.5808 37.9336 38.5809H33.9971C33.4502 38.5807 33.007 38.1375 33.0068 37.5906C33.0068 37.0437 33.4501 36.5996 33.9971 36.5994H34.7168L29.2324 26.0574C28.8613 26.0574 28.5139 25.9592 28.2129 25.7879L23.7646 35.7352H25.7637C26.3158 35.7352 26.7634 36.1831 26.7637 36.7352V37.5809C26.7637 38.1332 26.316 38.5809 25.7637 38.5809H16.8828C16.3305 38.5809 15.8828 38.1332 15.8828 37.5809V36.7352C15.883 36.1831 16.3307 35.7352 16.8828 35.7352H19.2061L25.0137 22.7489L24.375 22.4246C23.9884 22.2281 23.8337 21.7546 24.0303 21.368C24.2269 20.9818 24.6995 20.828 25.0859 21.0242L25.6553 21.3133L27.7764 16.574ZM29.2324 23.0408C28.7081 23.0411 28.2832 23.4667 28.2832 23.991C28.2832 24.5154 28.7081 24.94 29.2324 24.9403C29.7569 24.9403 30.1826 24.5155 30.1826 23.991C30.1826 23.4665 29.7569 23.0408 29.2324 23.0408Z" fill="black"/>
</svg>
