<svg width="56" height="56" viewBox="0 0 56 56" fill="none" xmlns="http://www.w3.org/2000/svg">
<path d="M24.9904 13.2304C26.7015 11.6913 29.2988 11.6912 31.0099 13.2304L34.4044 16.2841C34.5602 16.4242 34.7443 16.5307 34.9435 16.5956L39.2863 18.0087C41.4746 18.7211 42.7734 20.9702 42.296 23.2216L41.3488 27.6894C41.3053 27.8944 41.3053 28.1064 41.3488 28.3114L42.296 32.7782C42.7734 35.0296 41.4746 37.2788 39.2863 37.9911L34.9435 39.4042C34.7442 39.4691 34.5602 39.5756 34.4044 39.7157L31.0099 42.7695C29.2988 44.3086 26.7015 44.3085 24.9904 42.7695L21.5958 39.7157C21.44 39.5756 21.2561 39.4691 21.0568 39.4042L16.714 37.9911C14.5255 37.2788 13.2268 35.0296 13.7042 32.7782L14.6525 28.3114C14.6959 28.1065 14.6958 27.8943 14.6525 27.6894L13.7042 23.2216C13.2268 20.9702 14.5255 18.721 16.714 18.0087L21.0568 16.5956C21.2561 16.5307 21.44 16.4243 21.5958 16.2841L24.9904 13.2304Z" fill="white"/>
<path d="M25.9937 14.3456C27.1344 13.3195 28.8656 13.3195 30.0063 14.3456L33.4015 17.3997C33.7133 17.6802 34.0805 17.8922 34.4794 18.022L38.8219 19.4353C40.2809 19.9101 41.1465 21.4094 40.8282 22.9103L39.8809 27.3777C39.7939 27.788 39.7939 28.212 39.8809 28.6223L40.8282 33.0897C41.1465 34.5906 40.2809 36.0899 38.8219 36.5647L34.4794 37.978C34.0805 38.1078 33.7133 38.3198 33.4015 38.6003L30.0063 41.6544C28.8656 42.6805 27.1344 42.6805 25.9937 41.6544L22.5985 38.6003C22.2867 38.3198 21.9195 38.1078 21.5206 37.978L17.1781 36.5647C15.7191 36.0899 14.8535 34.5906 15.1718 33.0897L16.1191 28.6223C16.2061 28.212 16.2061 27.788 16.1191 27.3777L15.1718 22.9103C14.8535 21.4094 15.7191 19.9101 17.1781 19.4353L21.5206 18.022C21.9195 17.8922 22.2867 17.6802 22.5985 17.3997L25.9937 14.3456Z" fill="black"/>
</svg>
