<svg width="56" height="56" viewBox="0 0 56 56" fill="none" xmlns="http://www.w3.org/2000/svg">
<path fill-rule="evenodd" clip-rule="evenodd" d="M40.7056 16.6703C41.5339 16.2833 42.4928 16.577 42.9917 17.2953L43.0913 17.4555L44.2652 19.5766C44.738 20.4315 44.4804 21.5526 43.5992 22.0834L41.066 23.6098C40.6593 23.8545 40.2078 23.9212 39.7886 23.8432L31.2105 29.4448C31.2924 29.6821 31.3312 29.9179 31.3326 30.1489C33.8271 30.1713 35.7376 32.2685 35.7378 34.7202C35.7376 37.1851 33.8066 39.2932 31.2925 39.2934C29.9025 39.2933 28.691 38.6484 27.8853 37.6557C27.6492 37.7895 27.3696 37.8761 27.0464 37.8901L16.5982 38.3412C16.3288 38.9443 15.7484 39.4064 14.9956 39.4389L13.605 39.4985C12.6604 39.539 11.9119 38.8769 11.7242 38.0502L11.6939 37.8823C11.6733 37.7251 11.6766 37.567 11.6958 37.4125C11.5904 37.1887 11.5263 36.9441 11.5162 36.6918L11.5015 36.3041C11.4653 35.3856 12.122 34.4997 13.1333 34.3803L20.6646 33.4946C20.5618 33.2353 20.5055 32.9551 20.5054 32.6684V31.1235C19.9123 30.6616 19.5186 29.962 19.4429 29.1918L19.4292 28.9184L19.4429 28.645C19.576 27.2923 20.6843 26.1501 22.146 26.1498L22.2906 26.1528C22.6171 26.1698 22.924 26.2458 23.2046 26.3666C23.3149 26.264 23.4407 26.1676 23.5835 26.0815L26.0943 24.5698C26.7036 24.2028 27.3966 24.1736 27.9917 24.4028L37.189 19.3119C37.3201 18.9031 37.5916 18.5343 37.9956 18.2905L40.5298 16.7641L40.7056 16.6703Z" fill="white"/>
<path d="M14.9029 37.2157C15.0927 37.2075 15.2537 37.3598 15.264 37.5577C15.2745 37.7593 15.1251 37.9311 14.9317 37.9395L13.5403 37.9997C13.3615 38.0074 13.2062 37.8717 13.1819 37.6866C13.1542 37.4751 13.307 37.2844 13.5115 37.2755L14.9029 37.2157Z" fill="black"/>
<path fill-rule="evenodd" clip-rule="evenodd" d="M31.2927 31.647C32.9194 31.6471 34.2382 33.023 34.2383 34.7201C34.2383 36.4173 32.9195 37.7932 31.2927 37.7932C29.6658 37.7932 28.347 36.4174 28.347 34.7201C28.3471 33.023 29.6659 31.647 31.2927 31.647ZM31.2927 33.2884C30.5348 33.2884 29.9204 33.9295 29.9203 34.7201C29.9203 35.5109 30.5347 36.1519 31.2927 36.1519C32.0506 36.1518 32.665 35.5108 32.665 34.7201C32.6649 33.9295 32.0505 33.2885 31.2927 33.2884Z" fill="black"/>
<path d="M26.7897 34.2853C27.0152 34.2588 27.204 34.4615 27.197 34.6982C27.185 35.1 27.2263 35.5021 27.3195 35.8923C27.3768 36.1318 27.2189 36.381 26.9825 36.3912L13.3771 36.9791C13.1854 36.9873 13.0235 36.8317 13.0156 36.6317L13.0003 36.2446C12.9928 36.0545 13.1273 35.8906 13.3085 35.8693L26.7897 34.2853Z" fill="black"/>
<path d="M41.3044 18.0486C41.4706 17.9485 41.6833 18.008 41.7793 18.1814L42.9534 20.303C43.0494 20.4764 42.9923 20.6983 42.8261 20.7984L40.2925 22.3243C40.1264 22.4244 39.914 22.3652 39.818 22.1919L39.7532 22.075L29.2774 28.9171L29.7448 29.813C29.9603 30.2261 29.7435 30.7405 29.3439 30.9583C28.5659 31.3824 27.9386 32.066 27.567 32.8989C27.4392 33.1853 27.1767 33.3928 26.8738 33.3929H22.7011C22.3172 33.3929 22.0059 33.0682 22.0059 32.6676V31.044C22.0059 30.9649 22.0703 30.9034 22.1461 30.9034C23.197 30.9033 24.049 30.0145 24.049 28.9181C24.049 28.7714 24.0336 28.6283 24.0046 28.4907C23.9163 28.0725 24.0028 27.5804 24.3583 27.3664L26.8687 25.8546C27.2072 25.6508 27.6402 25.7777 27.827 26.1358L27.8569 26.1931L38.708 20.1861L38.6439 20.07C38.548 19.8966 38.6047 19.6751 38.7708 19.5749L41.3044 18.0486Z" fill="black"/>
<path d="M22.1461 27.649C22.818 27.649 23.3626 28.2173 23.3627 28.9181C23.3627 29.6191 22.818 30.1873 22.1461 30.1873C21.4743 30.1873 20.9296 29.6191 20.9296 28.9181C20.9296 28.2172 21.4743 27.649 22.1461 27.649Z" fill="black"/>
</svg>
