<svg width="56" height="56" viewBox="0 0 56 56" fill="none" xmlns="http://www.w3.org/2000/svg">
<path d="M25.9051 16.6543C26.4853 16.6543 27.0662 16.7495 27.5848 16.9482C28.2582 17.2064 28.5979 17.7518 29.1717 18.1045C30.1686 18.6968 31.05 19.7325 31.3689 20.8662C32.0677 21.0528 32.804 21.3303 33.1795 21.9873C33.3201 22.2335 33.5285 22.7697 33.2644 23.3857C33.0545 23.8753 32.6649 24.098 32.5613 24.1562C32.3281 24.2874 32.0752 24.3625 31.8182 24.4307C31.9284 24.6982 32.0183 24.9634 32.0184 25.2578C32.0184 25.84 31.6947 26.3494 31.2283 26.6738C31.1557 27.0521 31.1758 27.4085 31.0906 27.7764C32.5522 26.4122 33.9847 25.0167 35.4266 23.6318C35.4142 23.0272 35.6597 22.4331 36.1853 22.0967C36.6916 21.7727 37.1918 21.8227 37.5076 21.9121C37.6689 21.8712 37.8459 21.8512 38.0379 21.8623C38.7196 21.9018 39.1697 22.304 39.4187 22.6738L39.5379 22.876C39.7059 23.2121 39.7743 23.6226 39.6668 24.0527C39.4909 24.7555 38.8922 25.2755 38.4012 25.7666C38.0133 26.1545 37.7821 26.5221 37.4373 27.0586C37.0923 27.5954 36.6634 28.248 35.9344 28.9365C35.5346 29.3147 35.1215 29.6888 34.7586 30.1035C34.5649 30.7781 34.0432 31.2863 33.5721 31.7783C33.7216 32.5992 33.5313 33.4855 33.1014 34.1953C33.0319 35.4289 33.2376 36.7059 32.8348 37.9014C32.6893 38.333 32.4608 38.7303 32.1141 39.0654C31.8065 39.3626 31.4446 39.5544 31.0594 39.7295C30.2333 40.0127 27.3826 40.0127 27.3826 40.0127H22.3758C20.4635 40.0127 19.3852 40.0101 18.743 39.9795C18.1997 39.9536 17.6678 39.886 17.1795 39.6318C15.7092 38.8833 15.0898 37.0771 15.6004 35.5449C15.7294 35.158 15.9398 34.8163 16.1043 34.4463C17.0742 32.7004 18.0575 30.9188 19.2273 29.2939C19.6319 28.7321 20.1863 28.3083 20.8357 28.0566C20.9308 27.8416 21.0521 27.6937 21.1101 27.627C21.1747 27.5527 21.2897 27.4817 21.3367 27.3975C21.4294 27.2314 21.4891 27.0409 21.5584 26.8643C21.0665 26.8268 20.6035 26.5825 20.3201 26.1719C20.0168 25.7322 20.0167 25.2746 20.0603 25.002C20.1316 24.5568 20.3774 24.2094 20.4676 24.082C20.6525 23.8207 20.8663 23.582 21.074 23.3389C21.074 22.2107 20.7493 21.1664 21.1228 20.0225C21.295 19.4951 21.5505 18.8534 22.0828 18.2598C22.6711 17.6038 23.4602 17.1732 24.283 16.8828C24.7915 16.7133 25.3705 16.6543 25.9051 16.6543ZM28.9998 18.0156C29.0215 18.0156 28.9752 17.9798 28.9617 17.9629C28.9743 17.9805 28.9876 17.9976 28.9998 18.0156Z" fill="white"/>
<path d="M24.7577 18.3059C23.2525 18.8473 22.8435 19.5849 22.5486 20.488C22.2537 21.391 22.5486 23.0597 22.5486 23.0597C22.6136 23.4062 22.6569 23.4495 22.8626 23.4062C22.9926 23.3737 23.6098 23.2546 24.2379 23.1247C26.0849 22.7744 27.9075 22.2912 29.7389 21.8685C30.4103 21.7169 29.5006 20.0385 28.3961 19.3888C28.1471 19.2372 27.8655 19.0098 27.768 18.869C27.4865 18.4358 26.7501 18.1543 25.9055 18.1543C25.494 18.1651 24.9851 18.2301 24.7577 18.3059Z" fill="black"/>
<path d="M27.8114 22.7024C26.0986 23.1389 24.368 23.4844 22.6352 23.8285L22.083 24.4674C21.4008 25.2471 21.3683 25.4529 21.9422 25.3446C22.3971 25.2536 22.8406 25.1185 23.285 24.9872C23.5317 25.563 23.8602 26.131 23.8264 26.774C23.8047 26.9689 23.7398 27.0122 23.4582 26.9905C23.1225 26.9797 23.1009 27.0122 22.8735 27.6186C22.7543 27.9759 22.5378 28.3441 22.4187 28.4524C22.0938 28.7123 22.1155 28.7664 22.5919 28.7664C23.1767 28.7773 23.7939 29.0913 24.3245 29.6761C25.1258 30.5424 25.429 31.5494 25.429 33.3037C25.429 33.8884 25.4615 34.3974 25.494 34.4299C25.6998 34.6248 27.7031 33.0438 27.7031 32.6864C27.7031 32.1858 28.6777 31.8878 28.6777 31.4087C28.6777 31.3545 28.4611 30.9755 28.2012 30.564C27.768 29.871 27.7356 29.7952 27.8438 29.4378C28.0331 28.8322 27.0527 28.5289 27.6706 27.911C27.6814 27.8893 28.0496 27.8785 28.4719 27.8893C29.3599 27.911 29.6522 27.7485 29.6522 27.2179C29.6522 27.0339 29.7064 26.6007 29.7822 26.2542C29.8905 25.7236 29.9554 25.6153 30.2153 25.5287C30.3778 25.4637 30.5185 25.3446 30.5185 25.2579C30.5185 25.1713 30.3345 24.749 30.1179 24.3267C29.6414 23.4171 29.6739 23.3413 30.7243 23.1463C31.1033 23.0705 31.5364 22.9623 31.688 22.9081C31.9263 22.8215 31.9371 22.7782 31.8072 22.6482C31.6014 22.4533 30.5619 22.1609 30.1504 22.1826C29.9663 22.1826 28.9159 22.4208 27.8114 22.7024Z" fill="black"/>
<path d="M36.94 23.7744L36.9941 24.2076L33.7455 27.3262C31.5473 29.4378 30.4211 30.4449 30.2587 30.4449C30.107 30.4449 30.0204 30.5207 29.9988 30.6723C29.9771 30.7914 29.5548 31.3004 29.0567 31.7985C28.5477 32.3074 28.1362 32.7731 28.1362 32.838C28.1362 32.9896 26.5769 34.5057 26.4145 34.5057C26.1936 34.5057 25.9914 35.0088 25.7647 34.8955C25.7106 34.8522 25.5806 34.9388 25.494 35.0688C25.3424 35.2853 25.3424 35.3286 25.5048 35.5019C25.7431 35.7726 25.5915 35.9134 24.9309 36.0325C24.2649 36.1614 23.5359 35.821 22.8735 35.7293C22.1588 35.621 21.5632 35.5344 21.5415 35.5127C21.4874 35.4803 21.9422 34.9063 22.5594 34.2349L23.0684 33.6935L22.6785 34.4299C22.4078 34.928 22.332 35.177 22.4295 35.1987C23.0978 35.4215 23.8695 35.3083 24.5303 35.5561C24.6819 35.621 24.6927 35.4044 24.6385 33.6827C24.5736 31.452 24.4436 30.8889 23.8372 30.185C22.9384 29.1346 21.5848 29.0263 20.6319 29.9359C20.3179 30.2283 18.412 33.347 17.4266 35.1554C17.0151 35.9351 16.9285 36.1733 16.9285 36.6714C16.9285 37.4186 17.2642 37.9925 17.8598 38.2957C18.2496 38.5015 18.5095 38.5123 22.3753 38.5123H26.4794L26.6743 38.1441C27.0128 37.5349 28.1362 37.3057 28.1362 36.5198C28.1362 36.3899 28.0604 36.1733 27.963 36.0433C27.8005 35.8159 27.8114 35.7726 28.2229 35.2853C28.4611 35.0038 28.8726 34.5706 29.1433 34.3107C29.5656 33.8993 29.6306 33.8668 29.6739 34.0509C29.7172 34.2025 29.5331 34.484 29.035 35.0363C28.3528 35.7943 28.3311 35.8159 28.4611 36.1408C28.6452 36.5848 28.4503 37.2128 28.0279 37.5702L27.7031 37.8409L28.1687 37.96C28.9614 38.1323 29.6967 38.6625 30.4969 38.339C31.439 37.9492 31.6339 37.3644 31.5906 35.1012C31.5798 34.2241 31.6122 33.7043 31.688 33.6069C32.1212 33.0871 32.262 32.1233 31.9696 31.7119C31.7963 31.4628 31.818 31.4411 32.5652 30.6615C33.1066 30.1092 33.334 29.7952 33.334 29.6003C33.334 29.3945 33.7022 28.983 34.9042 27.846C36.0861 26.7297 36.2997 25.7466 37.3406 24.7057C38.142 23.9043 38.2827 23.7203 38.1961 23.547C38.0662 23.3088 37.8496 23.2979 37.6655 23.5145C37.5356 23.6661 37.5031 23.6661 37.3406 23.5145C37.0158 23.2221 36.875 23.3088 36.94 23.7744ZM27.7139 36.4223C27.8222 36.7147 27.584 37.0612 27.3349 36.9638C27.0534 36.8555 27.01 36.574 27.2266 36.3357C27.454 36.0867 27.5948 36.1083 27.7139 36.4223Z" fill="black"/>
</svg>
