<svg width="56" height="56" viewBox="0 0 56 56" fill="none" xmlns="http://www.w3.org/2000/svg">
<path d="M31.0696 13.773C31.6461 12.73 30.8754 11.3575 29.6037 11.4185L29.466 11.4302C28.8424 11.5092 26.8406 11.7876 25.4875 12.397C25.1928 12.5297 24.8364 12.7209 24.5803 12.8628C23.9038 12.5622 23.1017 12.5619 22.3967 12.9341L22.3957 12.9351L6.87425 21.1362C5.65459 21.7812 5.1872 23.2932 5.83226 24.5142L7.97972 28.5767L8.11058 28.7974C8.29494 29.0742 8.52787 29.3035 8.79124 29.481C8.7767 29.5713 8.76894 29.6633 8.76878 29.7564V32.8989C8.76896 33.8653 9.55239 34.6489 10.5188 34.6489H11.0256C11.4583 36.6507 13.2386 38.1506 15.3694 38.1509L15.5979 38.145C16.8675 38.0807 17.9959 37.4826 18.7659 36.5718C19.5813 37.5372 20.8006 38.1509 22.1633 38.1509L22.3918 38.145C24.4209 38.0423 26.09 36.5788 26.5071 34.6489H31.8088C32.2415 36.6507 34.0217 38.1506 36.1526 38.1509L36.3811 38.145C38.729 38.0261 40.5985 36.0697 40.5989 33.6909L43.8205 33.6919C44.7841 33.69 45.5662 32.9086 45.5676 31.9439V30.8833C45.5676 30.5309 45.462 30.2042 45.2834 29.9302L45.5959 29.0093L45.6428 28.8433C45.6819 28.6746 45.6968 28.4985 45.6838 28.3208L45.3928 24.3345L45.3664 24.1314C45.3274 23.9273 45.2498 23.7218 45.1291 23.5298L43.1116 20.3179C42.7918 19.809 42.2318 19.4995 41.6291 19.4995H33.6438C32.9405 19.4997 32.3121 19.9196 32.0373 20.5552L30.7307 23.5776L30.7297 23.5806C30.3723 24.4117 30.7081 25.3717 31.4934 25.8042L32.5432 26.3823L32.594 27.0581H22.675L21.5617 24.2271L26.8791 21.4185C27.5847 21.0455 28.0356 20.3817 28.1682 19.6528C28.4299 19.5211 28.7897 19.3355 29.0657 19.1665L29.3039 19.0122C30.4995 18.2056 31.7179 16.8575 32.1067 16.4165C32.9984 15.4039 32.3087 13.8845 31.0696 13.773Z" fill="white"/>
<path fill-rule="evenodd" clip-rule="evenodd" d="M15.3693 30.7609C16.9961 30.7609 18.3156 32.0798 18.3156 33.7062C18.3154 35.3324 16.996 36.6505 15.3693 36.6505C13.7428 36.6503 12.4242 35.3323 12.424 33.7062C12.4241 32.0799 13.7427 30.7611 15.3693 30.7609ZM15.3693 32.3341C14.6116 32.3343 13.9973 32.9486 13.9973 33.7062C13.9975 34.4636 14.6117 35.078 15.3693 35.0783C16.1271 35.0782 16.7421 34.4637 16.7424 33.7062C16.7423 32.9485 16.1272 32.3342 15.3693 32.3341Z" fill="black"/>
<path fill-rule="evenodd" clip-rule="evenodd" d="M22.1633 30.7609C23.79 30.7609 25.1085 32.0798 25.1086 33.7062C25.1084 35.3324 23.7899 36.6505 22.1633 36.6505C20.5366 36.6505 19.2182 35.3325 19.218 33.7062C19.218 32.0798 20.5365 30.7609 22.1633 30.7609ZM22.1633 32.3341C21.4054 32.3341 20.7913 32.9485 20.7912 33.7062C20.7914 34.4637 21.4055 35.0782 22.1633 35.0783C22.921 35.0782 23.5351 34.4637 23.5353 33.7062C23.5353 32.9485 22.9211 32.3342 22.1633 32.3341Z" fill="black"/>
<path fill-rule="evenodd" clip-rule="evenodd" d="M36.1525 30.7609C37.7793 30.7609 39.0988 32.0798 39.0988 33.7062C39.0986 35.3324 37.7792 36.6505 36.1525 36.6505C34.526 36.6503 33.2074 35.3324 33.2072 33.7062C33.2073 32.0799 34.5259 30.7611 36.1525 30.7609ZM36.1525 32.3341C35.3948 32.3343 34.7805 32.9486 34.7805 33.7062C34.7807 34.4637 35.3949 35.0781 36.1525 35.0783C36.9103 35.0782 37.5253 34.4637 37.5256 33.7062C37.5255 32.9485 36.9104 32.3342 36.1525 32.3341Z" fill="black"/>
<path d="M41.6291 20.9992C41.7151 20.9992 41.7953 21.0435 41.841 21.1163L43.8596 24.3283C43.8813 24.3629 43.8937 24.4027 43.8967 24.4435L44.1877 28.4298C44.1901 28.4631 44.1857 28.4969 44.175 28.5285L43.4621 30.6329H43.8176C43.9554 30.6332 44.0676 30.745 44.0676 30.8829V31.9415C44.0674 32.0793 43.9553 32.1913 43.8176 32.1915H41.757C41.7542 32.1915 41.751 32.1907 41.7482 32.1906H39.5998C39.5023 32.1906 39.4141 32.1336 39.3693 32.047C38.7678 30.8834 37.5535 30.0873 36.1535 30.087C34.4189 30.087 32.9696 31.3084 32.6174 32.9376C32.5913 33.0582 32.4868 33.1486 32.3635 33.1486H25.9523C25.8291 33.1484 25.7254 33.0581 25.6994 32.9376C25.3472 31.3084 23.8978 30.0871 22.1633 30.087C20.8457 30.0871 19.6917 30.7913 19.0588 31.8439C18.939 32.043 18.5927 32.0429 18.4728 31.8439C17.8403 30.7916 16.6875 30.0872 15.3703 30.087C13.6357 30.087 12.1864 31.3084 11.8342 32.9376C11.8081 33.0582 11.7036 33.1486 11.5803 33.1486H10.5187C10.3807 33.1486 10.2687 33.0366 10.2687 32.8986V29.7589C10.2689 29.6665 10.3198 29.5815 10.4016 29.5382L19.7902 24.5783C19.922 24.5087 20.0853 24.5694 20.1398 24.7081L21.591 28.3995C21.6286 28.495 21.7208 28.5577 21.8234 28.5577H33.9406C34.086 28.5577 34.2004 28.4342 34.1896 28.2892L33.9894 25.5958C33.983 25.5117 33.9344 25.4363 33.8605 25.3956L32.217 24.4904C32.1042 24.4283 32.0568 24.2912 32.1076 24.173L33.4142 21.1505C33.4538 21.059 33.544 20.9992 33.6437 20.9992H41.6291Z" fill="black"/>
<path d="M23.0969 14.2609C23.5851 14.003 24.1904 14.1896 24.4484 14.6779L26.5949 18.7404C26.8529 19.2286 26.6661 19.8339 26.1779 20.0919L10.6574 28.2931C10.1691 28.5511 9.56387 28.3644 9.30585 27.8761L7.15839 23.8136C6.90042 23.3254 7.0873 22.7202 7.57538 22.462L23.0969 14.2609Z" fill="black"/>
<path d="M30.8976 15.2677C30.9867 15.2568 31.04 15.3576 30.9807 15.4249C30.5489 15.9147 29.3299 17.2454 28.2824 17.8868C27.8686 18.1402 27.1859 18.4662 27.1721 18.4728L26.2326 16.6964C26.2326 16.6964 26.8959 16.3107 27.343 16.1095C28.4631 15.6055 30.2497 15.3484 30.8976 15.2677Z" fill="black"/>
<path d="M29.6545 12.9181C29.7439 12.9068 29.7972 13.0088 29.7375 13.0763C29.3039 13.5661 28.0837 14.8922 27.0373 15.5324C26.623 15.7857 25.9409 16.1121 25.9279 16.1183L24.9943 14.3517C25.0028 14.3468 25.6596 13.9648 26.1037 13.7648C27.2224 13.2609 29.0058 13.0003 29.6545 12.9181Z" fill="black"/>
</svg>
