<svg width="56" height="56" viewBox="0 0 56 56" fill="none" xmlns="http://www.w3.org/2000/svg">
<path d="M31.0604 14.8221C31.0812 14.4892 30.9971 14.18 30.8585 13.9282C30.7027 13.6453 30.4708 13.4238 30.2016 13.2543C30.1215 13.2039 30.0717 13.1166 30.0683 13.022C30.0506 12.5293 29.8637 11.8933 29.2618 11.4653L29.131 11.3823C28.8081 11.1963 28.4356 11.1293 28.0665 11.1352C27.8028 11.1395 27.5233 11.178 27.255 11.23C26.0329 11.465 24.3833 11.8014 23.796 13.0591C23.5964 13.4867 23.5546 13.9798 23.7101 14.4614C23.7692 14.6445 23.8507 14.8081 23.9438 14.9532C23.9798 15.0093 23.9948 15.0764 23.9871 15.1427C23.9258 15.6698 24.1002 16.1863 24.3648 16.6414C24.4245 16.744 24.4104 16.8742 24.3315 16.9629C23.9624 17.3776 23.7017 17.8869 23.5704 18.4263C23.5203 18.6575 23.5014 18.8836 23.4952 19.1196C23.4605 20.4581 23.4656 21.7985 23.4708 23.1373C23.4708 23.1464 23.4634 23.1537 23.4544 23.1535C22.7798 23.1399 22.1045 23.1276 21.4298 23.1343C20.5909 23.1425 19.739 23.422 18.9919 23.795C18.9068 23.8375 18.8056 23.8291 18.7246 23.7791C17.315 22.9089 14.9582 23.8177 13.9103 24.6675C12.5252 26.0526 11.8997 27.5125 11.5675 29.4331C11.2812 31.0884 11.1687 32.1936 10.5948 33.0757C10.5249 33.2156 10.4264 33.3422 10.3556 33.4829C10.0927 34.0058 10.0424 34.615 10.3097 35.1489C10.7931 36.114 11.9833 36.4088 12.9845 36.227C13.4437 36.1436 13.8885 35.9895 14.3041 35.781C14.4809 35.6923 14.6988 35.8184 14.6947 36.0162C14.6767 36.8826 14.6579 37.7433 14.63 38.604C14.6147 39.075 14.5612 39.5934 14.6466 40.063C14.7217 40.4761 14.9167 40.856 15.1814 41.1787C15.2159 41.2207 15.2372 41.272 15.2423 41.3262C15.2693 41.6111 15.3349 41.8911 15.464 42.1489C15.6403 42.5011 15.9934 42.92 16.5929 43.0825C17.329 43.2821 18.5471 43.1615 18.881 43.105C19.2149 43.0485 19.7326 42.7006 19.9152 42.5425C20.0977 42.3844 20.2113 42.1109 20.2775 41.8628C20.4575 41.1875 20.2847 40.36 19.9279 39.7625C19.8851 39.691 19.8103 39.6299 19.7521 39.5703C19.6322 39.4475 19.4478 39.2117 19.3234 39.0745C19.2712 39.0171 19.2376 38.9423 19.2401 38.8648C19.2509 38.536 19.2694 38.2076 19.2918 37.8795C19.3068 37.6594 19.5795 37.5676 19.726 37.7325C20.1166 38.1722 20.5066 38.6127 20.8887 39.0595C20.9431 39.1232 20.961 39.2098 20.9412 39.2912C20.875 39.5632 20.8465 39.8566 20.9259 40.1948C21.2154 41.4272 22.802 42.472 23.9659 42.5171C26.7404 42.624 26.185 38.4866 25.1837 37.0894C24.6171 36.3718 24.0062 35.6889 23.4204 34.9865C23.3388 34.8885 23.3451 34.745 23.4327 34.6524C23.877 34.1829 24.2329 33.7413 24.5093 33.276C24.5706 33.1728 24.6941 33.1228 24.8089 33.1579C25.4174 33.3438 26.0322 33.4938 26.6589 33.6031C26.7632 33.6212 26.8443 33.7024 26.8733 33.8042C26.9691 34.1404 27.1626 34.4688 27.4142 34.6987C27.7669 35.0209 28.1617 35.1111 28.3741 35.146C28.719 35.2027 29.2525 35.2008 29.9005 35.2056C30.3452 35.209 30.6994 35.2103 30.977 35.203C31.1206 35.1992 31.242 35.3129 31.2427 35.4565C31.2484 36.52 31.2552 37.5835 31.2609 38.647C31.2698 39.5207 31.2004 40.5387 31.8137 41.2358C31.8534 41.281 31.8787 41.3373 31.8838 41.3971C31.9121 41.7268 31.9878 42.0427 32.1749 42.3247C32.4981 42.8116 33.0467 43.0854 33.6222 43.1431C33.8858 43.1695 34.6173 43.1597 34.6173 43.1597C34.6173 43.1597 35.2912 43.142 35.4093 43.1284C35.5274 43.1149 35.766 43.0765 36.0138 42.9517C36.5911 42.6607 36.9715 42.039 37.006 41.395C37.0168 41.1918 36.9973 41.0059 36.9665 40.8447C36.9362 40.6863 37.0445 40.5283 37.2021 40.494C38.1171 40.2954 39.039 39.5245 39.6476 38.9282C40.2368 38.3508 40.504 37.6449 40.6564 37.1138C40.7822 36.6751 40.8544 36.224 40.9728 35.7837C41.1958 34.9649 41.3714 34.2665 41.4591 33.8228C41.648 32.8671 41.328 31.8717 40.6085 31.1938C40.0805 30.6924 39.3819 30.3897 38.7329 30.0657C38.6231 30.0108 38.572 29.8837 38.6053 29.7656C38.76 29.2167 38.8197 28.6491 38.8478 28.0786C38.8841 27.3299 38.9612 26.7561 39.1209 26.1249C39.1596 25.9717 39.3329 25.8952 39.4705 25.9729C39.5219 26.002 39.5385 26.0142 39.5548 26.0269C39.6117 26.0712 39.6868 26.1436 40.0284 26.5024C40.3218 26.8154 40.7321 27.1465 41.2784 27.2964C41.8243 27.4461 42.5812 27.2476 42.9103 27.1167C43.2393 26.9858 43.7753 26.5342 44.0821 26.1245C44.3835 25.722 44.7467 24.897 44.7574 24.4898C44.7681 24.0827 44.6287 23.768 44.4874 23.4624C44.298 23.0527 43.9959 22.6876 43.7384 22.3159C43.1574 21.4465 42.6586 20.5248 42.0422 19.6788C41.9969 19.6166 41.9821 19.5372 42.0011 19.4626C42.0608 19.2275 42.1054 18.9912 42.1193 18.7612C42.1606 18.0738 41.9165 17.3914 41.338 16.9849C41.1384 16.8454 40.6978 16.587 40.087 16.686C39.4122 16.7956 38.8621 17.3038 38.4044 17.7799C38.3645 17.8214 38.3115 17.848 38.2544 17.8562C36.9774 18.0398 35.9945 18.6746 34.8674 19.2397C34.8557 19.2456 34.8443 19.2524 34.8336 19.2601C34.0615 19.8139 33.4775 20.3419 32.7683 21.1378C32.6744 21.2431 32.5127 21.2506 32.3966 21.1705C32.1436 20.9959 31.8709 20.8993 31.5763 20.7729C31.0937 20.5659 30.6233 20.3289 30.1539 20.0936C30.0835 20.0583 30.0338 19.9921 30.0201 19.9146C29.9423 19.4733 29.8707 19.0198 29.7296 18.5962C29.6091 18.295 29.4807 18.0075 29.3075 17.7365C29.2416 17.6336 29.2508 17.4984 29.3296 17.4051C29.5696 17.1207 29.7577 16.793 29.8794 16.4316C29.9047 16.3563 29.9635 16.2977 30.0273 16.2503C30.3362 16.0205 30.4855 15.3833 30.7264 15.1684C30.8452 15.0624 31.0504 14.9811 31.0604 14.8221Z" fill="white"/>
<path d="M40.1104 18.2713C40.31 18.1465 40.3671 18.1354 40.4775 18.2137C40.6987 18.3671 40.6701 18.8201 40.3955 19.5975C40.3491 19.733 40.3207 19.8622 40.335 19.8836C40.3468 19.9099 40.539 20.1657 40.7559 20.4608C41.4881 21.4397 42.0403 22.5368 42.7539 23.5291C43.178 24.1208 43.1813 24.1353 43.1777 24.4383C43.1777 24.9859 42.7045 25.5425 42.2295 25.7801C41.8514 25.9727 41.4976 25.8759 41.1231 25.4764C40.4883 24.8095 40.4704 24.7947 39.8106 24.4559C39.4682 24.2811 39.0433 24.0423 38.8721 23.9246C38.5977 23.7394 38.5479 23.7181 38.4766 23.7537C38.3588 23.8074 38.1022 24.3282 37.9238 24.8738C37.56 25.9938 37.4067 26.8286 37.3496 28.0057C37.2997 29.0222 37.1853 29.4859 36.793 30.2635C36.629 30.5913 36.6251 30.6096 36.6856 30.6737C36.7177 30.7129 37.2641 31.0056 37.8955 31.3231C39.129 31.947 39.3612 32.0789 39.5752 32.2821C39.8427 32.5317 40.0244 32.9425 40.0244 33.285C40.0242 33.4496 39.8178 34.3163 39.5254 35.3895C39.3034 36.2123 39.2287 37.239 38.5977 37.8572C38.1519 38.2852 37.1931 38.9423 36.8789 39.0281C36.2188 39.2107 36.305 37.7232 36.3652 37.4051C36.4734 36.8284 37.2728 37.028 37.5459 36.6092C37.7137 36.355 38.3052 34.0301 38.2588 33.7947C38.2052 33.5059 37.9664 33.3736 36.6719 32.91C36.465 32.8386 36.0078 32.6637 35.6582 32.5281C34.7099 32.1574 34.7385 32.1328 34.6387 33.4451C34.4924 35.4284 34.3535 38.1042 34.3535 38.9354C34.3535 39.6519 34.3749 39.7087 34.8027 40.0653C34.9668 40.2008 35.1415 40.3692 35.1914 40.4334C35.3563 40.6505 35.6722 41.3243 35.4053 41.5604C35.3126 41.6495 35.3015 41.6493 34.5918 41.66C33.7645 41.6742 33.604 41.6566 33.4756 41.5496C33.39 41.4747 33.3831 41.4459 33.3652 41.0428L33.3438 40.6151L33.1191 40.408C32.7303 40.0442 32.7695 40.4652 32.7481 36.2635C32.7302 32.6073 32.7302 32.5891 32.6553 32.4285C32.4733 32.0504 32.0844 31.7719 31.5957 31.6756C31.4104 31.6364 31.3891 31.6261 31.4033 31.5584C31.672 29.9466 32.5074 28.231 32.3164 26.5897C32.2415 25.9369 32.0237 25.519 31.4922 25.0125C31.2569 24.7915 31.207 24.7235 31.2891 24.7235C31.3109 24.7232 31.4675 24.6486 31.6348 24.5526C31.9772 24.3671 32.2771 24.0924 32.6445 23.6287C34.0534 21.8632 34.6955 21.2033 35.7227 20.4686C36.4823 19.9265 37.3526 19.5513 38.2764 19.3729C38.5262 19.3229 38.7727 19.3016 39.0264 19.3016C39.3692 18.9558 39.7041 18.5423 40.1104 18.2713Z" fill="black"/>
<path d="M21.2979 24.6385C21.4075 24.6208 23.9737 24.6523 24.0156 24.6737C24.0263 24.6808 24.0875 24.7734 24.1445 24.8768C24.3693 25.2692 24.5758 25.4162 27.54 27.2889C27.8246 27.4667 28.0774 27.6442 28.1035 27.6805C28.1428 27.734 28.1425 27.7812 28.1104 27.9061C27.9889 28.3464 27.5716 31.0417 27.4824 31.9403C27.4682 32.072 27.4472 32.186 27.4365 32.1932C27.3973 32.2146 26.7693 32.1116 26.1914 31.9832C25.8705 31.9119 25.3003 31.7477 24.9258 31.6229C24.0804 31.3339 23.9906 31.3161 23.8408 31.3768C23.7161 31.4303 23.6409 31.5548 23.4912 31.9539C23.2523 32.5888 22.8209 33.1668 21.9365 34.0369C21.6298 34.3401 21.4011 34.5937 21.3867 34.6473C21.3439 34.8149 21.3868 34.8792 22.2246 35.8953C22.6026 36.3518 23.5691 37.4968 23.8584 37.8289C24.467 38.5273 24.631 39.8887 24.4014 40.7469C24.1734 41.5611 22.6174 40.3237 22.4356 39.9725C22.343 39.798 22.354 39.7229 22.5322 39.2381C22.6963 38.796 22.8058 38.96 20.9619 36.8699C20.4881 36.3308 20.0071 35.798 19.5391 35.2537C19.3857 35.0718 19.2391 34.9256 19.207 34.9256C19.107 34.9259 18.8784 35.0652 18.5684 35.3182C18.1941 35.6176 18.0342 35.8143 17.9629 36.0496C17.8737 36.3362 17.7053 38.8559 17.7373 39.3699C17.7748 39.951 18.3384 40.0572 18.6113 40.4862C18.8002 40.7677 18.9146 41.4235 18.7939 41.5457C18.7654 41.5778 18.6755 41.6174 18.6006 41.6317C18.4388 41.6708 17.1159 41.6711 16.9854 41.6356C16.6504 41.5449 16.7394 40.8973 16.7246 40.6151C16.479 40.3769 16.1915 40.1473 16.1221 39.7947C16.1078 39.7163 16.1111 39.2025 16.1289 38.6531C16.1687 37.4262 16.1919 36.1988 16.2178 34.9715C16.358 34.6925 16.5297 34.4498 16.7393 34.2156C17.7056 33.1352 17.8699 32.7854 17.8272 31.9012C17.8093 31.5124 17.7555 31.1981 17.5879 30.4315C17.3992 29.5732 17.3002 28.5867 17.5166 27.7205C17.9695 25.9008 19.5347 24.8904 21.2979 24.6385Z" fill="black"/>
<path d="M16.8213 24.9988C17.1102 24.9597 17.8574 25.0129 17.9727 25.077C18.0119 25.0984 17.9803 25.1448 17.8555 25.2625C17.3312 25.7511 17.0282 26.1542 16.75 26.7391C15.7832 28.7648 16.5651 31.2929 15.1592 33.16C14.7811 33.6594 14.1953 34.159 13.6816 34.4158C13.2061 34.6597 12.2259 35.0063 11.752 34.5975C11.5666 34.4334 11.5805 34.3116 11.8516 33.8944C13.4292 31.4702 12.4564 27.7905 14.8555 25.8328C15.4404 25.3585 16.0544 25.0987 16.8213 24.9988Z" fill="black"/>
<path d="M25.999 17.5897C26.2093 17.5255 26.6691 17.5501 26.9082 17.6356C27.5467 17.8674 28.0891 18.4245 28.3066 19.0701C28.3638 19.2416 28.5177 20.0008 28.6318 20.6746C28.6603 20.8491 28.7026 21.017 28.7275 21.0389C28.8096 21.1245 30.9823 22.1799 31.125 22.2049C31.3996 22.2584 31.6317 22.4265 31.7529 22.6619C31.8776 22.9043 31.8276 23.1931 31.6104 23.4676C31.3642 23.7744 31.071 23.8609 30.7285 23.7147C29.9509 23.3865 28.442 22.7154 28.1816 22.5799C27.904 22.4375 27.8077 22.4194 27.6973 22.494C27.5938 22.5617 27.5039 22.7475 27.5039 22.8973C27.5039 23.0221 27.6401 23.1573 28.0039 23.3856C28.25 23.5425 28.6603 23.85 29.3809 24.41C30.014 24.9045 30.9051 25.4631 31.2637 26.2215C31.4956 26.7093 31.3511 27.324 31.2422 27.827C30.9715 29.0561 30.7304 30.2915 30.4541 31.5194C30.2616 32.375 30.276 32.407 30.8965 32.4783C31.3459 32.5318 31.5246 32.5959 31.6602 32.7528C31.8385 32.9668 31.7986 33.3989 31.5811 33.5701C31.4064 33.709 31.281 33.7166 29.9121 33.7059C28.443 33.6952 28.4529 33.6949 28.3389 33.449C28.2854 33.3456 28.2887 33.281 28.3564 32.7108C28.574 30.9094 28.806 29.2783 28.9736 28.3973C29.0343 28.0728 29.0915 27.7053 29.0986 27.577C29.12 27.217 29.0736 27.1633 28.3711 26.7176C27.5696 26.2132 26.77 25.7059 25.9707 25.1981C25.3286 24.795 25.0321 24.5309 24.9893 24.3133C24.9536 24.1176 24.9686 19.0782 25.0078 18.8738C25.1009 18.3685 25.4697 17.7409 25.999 17.5897Z" fill="black"/>
<path d="M25.7031 15.0858C25.8781 15.043 26.5024 15.0861 26.8447 15.161C27.4107 15.2855 27.9713 15.4508 28.5459 15.5311L28.5205 15.6951C28.4421 16.2158 28.1037 16.6514 27.5938 16.8797C27.312 17.0046 26.887 16.9973 26.541 16.8582C26.2238 16.7313 24.9612 15.2624 25.7031 15.0858Z" fill="black"/>
<path d="M27.54 12.7029C27.9823 12.6174 28.282 12.6134 28.3926 12.6883C28.8336 13.0019 28.297 13.7224 28.5713 14.0936C28.7404 14.3215 29.6328 14.4649 29.5586 14.7537C29.4944 15.0141 28.8879 15.0145 27.9141 14.7576C26.9762 14.5116 26.7692 14.4789 26.0986 14.4647L25.4961 14.4539L25.3887 14.3543C24.3038 13.3488 26.745 12.8558 27.54 12.7029Z" fill="black"/>
</svg>
