<svg width="56" height="56" viewBox="0 0 56 56" fill="none" xmlns="http://www.w3.org/2000/svg">
<path d="M33.4131 18.6947C33.0192 18.2181 32.4293 17.9371 31.8028 17.9369H26.0489C25.0268 17.9375 24.1405 18.6806 23.9854 19.7094L23.6104 22.1879L23.6084 22.1957L16 22.1967C14.9105 22.1967 13.9538 22.9008 13.6221 23.9242L12.7881 27.4926C12.7121 27.8225 12.7048 28.1632 12.7637 28.4935L13.3096 31.5482C13.4543 32.3577 14.0208 32.7482 14.4913 32.9252C14.4559 33.1508 14.4386 33.3821 14.4385 33.6176C14.4385 36.0728 16.4289 38.0629 18.8838 38.0629C20.413 38.0628 21.7616 37.2904 22.5616 36.1146C23.3616 37.2904 24.71 38.0629 26.2393 38.0629L26.4678 38.057C27.9024 37.9843 29.1571 37.2315 29.917 36.1146C30.717 37.2904 32.0655 38.0628 33.5948 38.0629C35.6537 38.0628 37.3854 36.6631 37.8907 34.7631C38.2947 34.7093 38.6886 34.505 38.9737 34.1293L42.7666 29.1293C43.8441 27.7085 43.1305 25.6477 41.4043 25.1986L38.4815 24.4379L37.1485 23.1488H38.0049C39.2349 23.1487 40.2323 22.1522 40.2325 20.9222C40.2325 19.6921 39.235 18.6948 38.0049 18.6947H33.4131Z" fill="white"/>
<path d="M31.8023 19.4368C32.0199 19.4368 32.2198 19.556 32.3217 19.7464C32.4236 19.9368 32.7478 20.1943 32.7478 20.1943H38.0048C38.4065 20.1943 38.7322 20.52 38.7322 20.9217C38.7322 21.3235 38.4065 21.6491 38.0048 21.6491H33.5249L33.7894 22.2252C33.9804 22.6129 33.7189 23.0798 33.3107 23.0798H25.6286C25.2983 23.0795 25.0451 22.7639 25.0931 22.4126L25.4686 19.9338C25.5112 19.6484 25.7584 19.437 26.0497 19.4368H31.8023Z" fill="black"/>
<path fill-rule="evenodd" clip-rule="evenodd" d="M18.8837 30.6729C20.5104 30.6729 21.8293 31.9915 21.8293 33.6179C21.8293 35.2443 20.5105 36.5628 18.8837 36.5629C17.2568 36.5628 15.938 35.2443 15.938 33.6179C15.9381 31.9914 17.2569 30.6729 18.8837 30.6729ZM18.8837 32.2458C18.1258 32.2458 17.5114 32.8601 17.5113 33.6179C17.5113 34.3756 18.1257 34.9899 18.8837 34.9899C19.6416 34.9899 20.256 34.3756 20.256 33.6179C20.256 32.8602 19.6415 32.2459 18.8837 32.2458Z" fill="black"/>
<path fill-rule="evenodd" clip-rule="evenodd" d="M26.2393 30.6729C27.866 30.6729 29.1849 31.9915 29.1849 33.6179C29.1849 35.2443 27.8661 36.5628 26.2393 36.5629C24.6124 36.5628 23.2936 35.2443 23.2936 33.6179C23.2937 31.9914 24.6125 30.6729 26.2393 30.6729ZM26.2393 32.2458C25.4814 32.2458 24.867 32.8601 24.8669 33.6179C24.8669 34.3756 25.4813 34.9899 26.2393 34.9899C26.9972 34.9899 27.6116 34.3756 27.6116 33.6179C27.6116 32.8602 26.9971 32.2459 26.2393 32.2458Z" fill="black"/>
<path fill-rule="evenodd" clip-rule="evenodd" d="M33.5949 30.6729C35.2216 30.6729 36.5404 31.9915 36.5405 33.6179C36.5405 35.2443 35.2216 36.5628 33.5949 36.5629C31.968 36.5628 30.6492 35.2443 30.6492 33.6179C30.6493 31.9914 31.9681 30.6729 33.5949 30.6729ZM33.5949 32.2458C32.837 32.2458 32.2226 32.8601 32.2225 33.6179C32.2225 34.3756 32.8369 34.9899 33.5949 34.9899C34.3528 34.9899 34.9672 34.3756 34.9672 33.6179C34.9671 32.8602 34.3527 32.2459 33.5949 32.2458Z" fill="black"/>
<path d="M35.1514 23.6956C35.4108 23.6956 35.6603 23.7966 35.8467 23.9768L37.5352 25.6096C37.659 25.7293 37.812 25.8143 37.9786 25.8577L41.0264 26.6506C41.7169 26.8302 42.0025 27.6545 41.5714 28.2229L37.7784 33.2229C37.6898 33.3396 37.5256 33.262 37.5072 33.1167C37.2693 31.2404 35.7147 29.7752 33.7979 29.678L33.5948 29.6731C32.1946 29.6731 30.9653 30.4027 30.2653 31.5022C30.1184 31.7331 29.7157 31.7331 29.5688 31.5022C28.9028 30.4561 27.758 29.7447 26.4424 29.678L26.2393 29.6731C24.839 29.6731 23.6098 30.4027 22.9099 31.5023C22.7629 31.7331 22.3603 31.7331 22.2133 31.5023C21.5473 30.4561 20.4024 29.7448 19.087 29.678L18.8839 29.6731C17.5307 29.6731 16.3363 30.3543 15.6254 31.3927C15.4413 31.6616 14.8438 31.6049 14.7864 31.2842L14.2403 28.2297C14.2166 28.097 14.2198 27.9607 14.2501 27.8293L15.0255 24.4709C15.1303 24.0174 15.5345 23.6965 16.0001 23.6965L35.1514 23.6956Z" fill="black"/>
</svg>
