<svg width="56" height="56" viewBox="0 0 56 56" fill="none" xmlns="http://www.w3.org/2000/svg">
<path d="M28 13.5C29.0509 13.5 30.0777 13.728 30.8945 14.1719C31.6534 14.5844 32.58 15.4028 32.5801 16.6738C32.58 17.2723 32.3728 17.7694 32.0761 18.1719L32.1074 18.5645C32.1158 18.6699 32.123 18.7921 32.123 18.9248C32.123 19.8857 31.8102 20.8006 31.2734 21.5391C32.8997 21.949 33.9519 23.5613 33.8222 25.2285L33.2998 31.9512C33.239 32.7326 32.7741 33.4624 32.0664 33.8271L31.9219 40.251C31.8955 41.4054 30.9871 42.4998 29.6728 42.5H26.5283C25.2377 42.4997 24.3338 41.4401 24.2822 40.3037L23.9883 33.8545C23.2501 33.4998 22.7636 32.7529 22.7011 31.9521L22.1777 25.2285C22.0481 23.5617 23.1 21.9495 24.7256 21.5391C24.1891 20.8007 23.8779 19.8854 23.8779 18.9248C23.8779 18.796 23.8838 18.675 23.8926 18.5645L23.9238 18.1699C23.667 17.821 23.477 17.4018 23.4316 16.9062L23.4209 16.6738L23.4316 16.4404C23.5363 15.3017 24.3949 14.5585 25.1064 14.1719C25.9232 13.7281 26.9492 13.5 28 13.5Z" fill="white"/>
<path d="M30.4601 22.9387C31.5559 22.9388 32.4177 23.9421 32.3267 25.1121L31.8039 31.8353C31.7716 32.2513 31.4468 32.5713 31.0572 32.5714H30.5951L30.4217 40.2169C30.4117 40.6524 30.0794 41 29.6727 41H26.5285C26.1288 41 25.7993 40.6638 25.7799 40.2361L25.432 32.5714H24.9432C24.5535 32.5714 24.2288 32.2513 24.1965 31.8353L23.6733 25.1121C23.5823 23.9422 24.4441 22.9388 25.5399 22.9387H30.4601Z" fill="black"/>
<path d="M30.6119 18.6832C30.6183 18.7629 30.6225 18.8435 30.6225 18.925C30.6225 20.4767 29.4484 21.7346 28 21.7346C26.5516 21.7346 25.3775 20.4767 25.3775 18.925C25.3775 18.8436 25.3814 18.7629 25.3877 18.6832C26.1259 18.9671 27.0269 19.1351 28 19.1351C28.9729 19.1351 29.8738 18.967 30.6119 18.6832Z" fill="black"/>
<path d="M28 15C29.7007 15 31.0795 15.7492 31.0795 16.6737C31.0795 17.5981 29.7007 18.3473 28 18.3473C26.2993 18.3473 24.9205 17.5981 24.9205 16.6737C24.9205 15.7492 26.2993 15 28 15Z" fill="black"/>
</svg>
