<svg width="56" height="56" viewBox="0 0 56 56" fill="none" xmlns="http://www.w3.org/2000/svg">
<path d="M30.5854 18.4496C31.4918 18.2102 32.3237 18.2491 33.0746 18.5589C33.7843 18.8518 34.2865 19.3339 34.6342 19.7093C35.319 20.4491 36.286 21.8316 37.2055 23.1341C37.6592 23.7768 38.0462 24.3784 38.394 24.9085C38.748 25.4482 39.0662 25.9218 39.4194 26.3753L39.641 26.6742C41.8429 29.8118 41.2293 34.2106 37.9838 36.4652L37.9828 36.4662C34.7616 38.6986 30.337 37.7732 28.2211 34.5287H27.7787C25.6629 37.7732 21.2383 38.6986 18.017 36.4662L18.016 36.4652C14.6662 34.138 14.1204 29.5265 16.5805 26.3753C16.9336 25.9218 17.2518 25.4482 17.6059 24.9085C17.9537 24.3784 18.3407 23.7768 18.7944 23.1341C19.7138 21.8316 20.6808 20.4491 21.3656 19.7093C21.7133 19.3338 22.2155 18.8518 22.9252 18.5589C23.6762 18.2491 24.508 18.2102 25.4145 18.4496H25.4164C26.7627 18.8069 27.6273 19.7518 27.9994 20.89C28.3715 19.7516 29.237 18.807 30.5834 18.4496H30.5854Z" fill="white"/>
<path fill-rule="evenodd" clip-rule="evenodd" d="M26.9226 33.0292C26.8779 33.1052 26.7751 33.284 26.6723 33.4673C25.0764 36.2121 21.4643 37.0301 18.8715 35.2331C16.2653 33.4225 15.8048 29.806 17.7628 27.2981C18.5496 26.2878 19.1503 25.2311 20.02 23.999C20.9747 22.6466 21.8679 21.3749 22.4666 20.7282C23.0654 20.0815 23.7621 19.5644 25.0317 19.8997C26.261 20.226 26.8913 21.3972 26.6678 22.7428C26.6142 23.0558 26.5314 23.5774 26.8128 23.897C27.0915 24.2135 27.9571 24.2661 28 24.2673C28.0429 24.2661 28.9085 24.2135 29.1872 23.897C29.4686 23.5774 29.3858 23.0558 29.3322 22.7428C29.1087 21.3972 29.739 20.226 30.9683 19.8997C32.2379 19.5644 32.9346 20.0815 33.5333 20.7282C34.1321 21.3749 35.0253 22.6466 35.98 23.999C36.8497 25.2311 37.4504 26.2878 38.2372 27.2981C40.1952 29.806 39.7347 33.4225 37.1285 35.2331C34.5357 37.0301 30.9236 36.2121 29.3277 33.4673C29.2249 33.284 29.1221 33.1052 29.0774 33.0292H28H26.9226ZM21.9918 27.2445C23.9275 27.2713 25.4787 28.8628 25.4564 30.7984C25.4429 32.7565 23.8873 34.2943 21.9382 34.2853C19.9891 34.2809 18.3887 32.6581 18.42 30.718C18.4513 28.8047 20.0874 27.2177 21.9918 27.2445ZM34.0082 27.2445C32.0725 27.2713 30.5213 28.8628 30.5436 30.7984C30.5571 32.7565 32.1127 34.2943 34.0618 34.2853C36.0109 34.2809 37.6113 32.6581 37.58 30.718C37.5487 28.8047 35.9126 27.2177 34.0082 27.2445Z" fill="black"/>
</svg>
