<svg width="56" height="56" viewBox="0 0 56 56" fill="none" xmlns="http://www.w3.org/2000/svg">
<path d="M28.1768 17.75C28.9691 17.7502 29.7078 18.1569 30.1289 18.8281L30.209 18.9658L30.623 19.7393H37.2217C37.5452 19.4896 37.9493 19.3411 38.3838 19.3408H41.5977C42.6339 19.3408 43.5 20.1773 43.5 21.2393V23.2266C43.5 24.2885 42.6339 25.125 41.5977 25.125H38.3838C37.9493 25.1247 37.5452 24.9762 37.2217 24.7266H33.1943C33.269 25.0587 33.2636 25.3912 33.1934 25.7051H34.083C37.5591 25.7053 40.402 28.499 40.4023 31.9766C40.4021 35.4539 37.5596 38.2498 34.083 38.25H18.8193C15.343 38.2496 12.5002 35.4539 12.5 31.9766C12.5003 29.0076 14.5728 26.5384 17.3418 25.8789C17.2474 25.5673 17.2186 25.2282 17.2705 24.8789L18.0381 19.709L18.0391 19.708C18.2085 18.5731 19.1856 17.7507 20.3154 17.75H28.1768Z" fill="white"/>
<path fill-rule="evenodd" clip-rule="evenodd" d="M34.0828 27.2046C36.7445 27.2048 38.9019 29.3412 38.9022 31.9768C38.902 34.6124 36.7446 36.7499 34.0828 36.75H18.8193C16.1577 36.7497 14.0002 34.6123 14 31.9768C14.0003 29.3413 16.1578 27.2049 18.8193 27.2046H34.0828ZM18.8193 29.5907C17.4888 29.591 16.4099 30.6592 16.4097 31.9768C16.4098 33.2944 17.4887 34.3625 18.8193 34.3628C20.1502 34.3628 21.2288 33.2945 21.229 31.9768C21.2287 30.6591 20.1501 29.5907 18.8193 29.5907ZM34.0828 29.5907C32.7522 29.5908 31.6723 30.6592 31.672 31.9768C31.6722 33.2945 32.7521 34.3627 34.0828 34.3628C35.4135 34.3626 36.4923 33.2944 36.4925 31.9768C36.4922 30.6592 35.4134 29.5909 34.0828 29.5907Z" fill="black"/>
<path d="M28.1766 19.25C28.474 19.2501 28.7472 19.4129 28.8864 19.6731L29.7238 21.2389H37.9827C37.9827 21.0194 38.1632 20.8408 38.3849 20.8407H41.5978C41.8196 20.8407 42 21.0193 42 21.2389V23.2268C42 23.4464 41.8196 23.625 41.5978 23.625H38.3849C38.1632 23.6249 37.9827 23.4463 37.9827 23.2268H30.7856L31.6504 24.8434C31.9336 25.3732 31.5459 26.0111 30.9406 26.0111H19.5485C19.0586 26.0107 18.6831 25.5795 18.7544 25.0995L19.5223 19.9292C19.5805 19.5392 19.9183 19.2503 20.3164 19.25H28.1766Z" fill="black"/>
</svg>
