<svg width="512" height="512" viewBox="0 0 512 512" fill="none" xmlns="http://www.w3.org/2000/svg">
<g clip-path="url(#clip0_64_73)">
<g opacity="0.15">
<path d="M387.276 442.765L290.685 491.139C271.634 500.68 240.719 500.692 221.636 491.166L124.89 442.871C105.807 433.345 105.782 417.888 124.834 408.347L221.424 359.973C240.476 350.432 271.391 350.42 290.473 359.946L387.22 408.241C406.303 417.767 406.328 433.224 387.276 442.765Z" fill="#191919"/>
</g>
<path d="M161.081 290.436L278.8 327.373" stroke="#F9F8FE" stroke-width="67.2" stroke-linecap="round" stroke-linejoin="round"/>
<path d="M260.429 442.848L259.38 461.749" stroke="#F9F8FE" stroke-width="39.9" stroke-linecap="round" stroke-linejoin="round"/>
<mask id="mask0_64_73" style="mask-type:luminance" maskUnits="userSpaceOnUse" x="-13" y="-3" width="538" height="538">
<path d="M-12.8 -2.80005H524.8V534.8H-12.8V-2.80005Z" fill="white"/>
</mask>
<g mask="url(#mask0_64_73)">
<path d="M364.233 432.681L280.031 474.85C267.63 481.061 257.59 473.782 257.59 458.582V355.373C257.59 340.172 267.63 322.838 280.031 316.627L364.233 274.459C376.634 268.248 386.674 275.526 386.674 290.726C388.428 331.032 388.001 353.63 386.674 393.935C386.674 409.136 376.634 426.47 364.233 432.681Z" fill="#C1C2D3"/>
<path d="M364.233 432.681L280.031 474.85C267.63 481.061 257.59 473.782 257.59 458.582V355.373C257.59 340.172 267.63 322.838 280.031 316.627L364.233 274.459C376.634 268.248 386.674 275.526 386.674 290.726C388.66 331.355 388.379 353.906 386.674 393.935C386.674 409.136 376.634 426.47 364.233 432.681Z" stroke="#F9F8FE" stroke-width="7.35" stroke-linecap="round" stroke-linejoin="round"/>
<path d="M149.289 432.768L233.628 474.869C246.049 481.069 256.105 473.783 256.105 458.582V355.374C256.105 340.173 246.049 322.846 233.628 316.646L149.289 274.545C136.868 268.345 126.812 275.63 126.812 290.831V394.04C126.812 409.241 136.868 426.568 149.289 432.768Z" fill="#D8DDEB"/>
<path d="M149.289 432.768L233.628 474.869C246.049 481.069 256.105 473.783 256.105 458.582V355.374C256.105 340.173 246.049 322.846 233.628 316.646L149.289 274.545C136.868 268.345 126.812 275.63 126.812 290.831V394.04C126.812 409.241 136.868 426.568 149.289 432.768Z" stroke="#F9F8FE" stroke-width="7.35" stroke-linecap="round" stroke-linejoin="round"/>
<path d="M278.373 209.898L362.711 251.999C375.133 258.2 375.149 268.248 362.747 274.459L278.547 316.628C266.145 322.839 246.049 322.846 233.628 316.646L149.29 274.545C136.868 268.345 136.852 258.296 149.254 252.085L233.454 209.917C245.856 203.707 265.952 203.698 278.373 209.898Z" fill="#F2F1F8"/>
<path d="M278.373 209.898L362.711 251.999C375.133 258.2 375.149 268.248 362.747 274.459L278.547 316.628C266.145 322.839 246.049 322.846 233.628 316.646L149.29 274.545C136.868 268.345 136.852 258.296 149.254 252.085L233.454 209.917C245.856 203.707 265.952 203.698 278.373 209.898Z" stroke="#F9F8FE" stroke-width="7.35" stroke-linecap="round" stroke-linejoin="round"/>
<path d="M295.763 303.38C292.456 305.039 289.421 306.562 286.786 307.874" stroke="white" stroke-width="6.3" stroke-linecap="round" stroke-linejoin="round"/>
<path d="M277.094 312.725C276.842 312.851 276.716 312.924 276.716 312.924C275.32 313.617 273.818 314.237 272.243 314.762" stroke="white" stroke-width="6.3" stroke-linecap="round" stroke-linejoin="round"/>
</g>
<path d="M255.58 204.869C250.529 205.142 245.122 206.57 240.05 208.345C234.989 210.119 230.243 212.24 226.526 213.92C222.473 215.737 205.127 224.116 186.847 233.45C168.577 242.785 149.362 253.075 141.561 258.724C132.373 265.381 128.887 275.335 127.669 285.593C126.462 295.852 127.512 306.415 127.375 314.279C127.291 319.823 126.231 339.868 125.947 360.448C125.674 381.028 126.157 402.164 129.16 409.882C132.32 418.051 137.476 424.109 143.766 429.065C150.045 434.032 157.447 437.906 165.102 441.686C172.42 445.309 190.396 455.074 209.181 463.841C227.965 472.598 247.568 480.347 258.131 479.927C267.539 479.549 278.932 475.948 286.324 472.493C309.046 461.909 330.749 450.349 352.831 439.25C368.024 431.606 379.7 422.261 384.131 404.044C388.436 386.33 391.135 296.072 385.539 279.146C380.037 262.472 363.772 252.371 348.326 244.612C333.648 237.23 277.546 203.693 255.58 204.869Z" stroke="#939BAC" stroke-width="10.5" stroke-linecap="round" stroke-linejoin="round"/>
<path d="M238.616 273.841C237.268 273.063 236.561 272.162 236.495 271.138C236.551 270.115 237.25 269.216 238.592 268.442C240.969 267.069 244.174 265.926 248.204 265.015C252.295 264.068 256.726 263.704 261.495 263.923C264.674 264.069 267.67 264.144 270.482 264.149C273.416 264.153 276.227 263.875 278.914 263.314C281.724 262.754 284.47 261.699 287.152 260.15C289.103 259.024 290.473 257.702 291.261 256.186C292.049 254.669 292.103 253.117 291.423 251.527C290.866 249.938 289.361 248.436 286.91 247.021C283.906 245.287 280.875 244.171 277.817 243.672C274.758 243.173 271.763 243.204 268.831 243.764C265.961 244.36 263.215 245.414 260.593 246.928C259.251 247.703 257.694 248.106 255.922 248.139C254.21 248.136 252.649 247.728 251.24 246.914C249.891 246.136 249.184 245.235 249.119 244.211C249.175 243.187 249.874 242.289 251.215 241.514C255.483 239.05 260.152 237.416 265.223 236.612C270.354 235.843 275.52 235.904 280.72 236.794C286.042 237.684 290.971 239.439 295.506 242.057C299.49 244.357 302.161 246.885 303.518 249.64C304.998 252.395 305.132 255.148 303.922 257.899C302.834 260.65 300.309 263.17 296.346 265.458C292.931 267.429 289.423 268.818 285.82 269.624C282.217 270.431 278.459 270.866 274.547 270.931C270.696 270.96 266.569 270.831 262.167 270.542C259.293 270.361 256.513 270.692 253.827 271.535C251.202 272.343 249.249 273.116 247.969 273.856C246.628 274.63 245.071 275.034 243.298 275.066C241.586 275.064 240.026 274.655 238.616 273.841ZM218.5 286C216.784 285.009 215.892 283.79 215.824 282.343C215.879 280.896 216.76 279.68 218.467 278.694C220.235 277.673 222.342 277.165 224.787 277.168C227.354 277.172 229.496 277.67 231.212 278.66C232.99 279.687 233.851 280.923 233.797 282.37C233.864 283.817 233.014 285.051 231.246 286.072C229.539 287.058 227.401 287.549 224.834 287.545C222.389 287.541 220.277 287.026 218.5 286Z" fill="#E72525" stroke="#E72525" stroke-width="3"/>
<path d="M188.697 401.156C187.348 400.378 186.214 399.23 185.295 397.714C184.437 396.163 184.008 394.612 184.008 393.064C184.008 390.318 184.621 387.68 185.847 385.149C187.072 382.548 188.972 380.723 191.547 379.674C193.263 378.976 194.826 378.223 196.235 377.418C197.706 376.578 198.871 375.349 199.729 373.732C200.648 372.081 201.108 369.706 201.108 366.608C201.108 364.355 200.648 361.978 199.729 359.476C198.809 356.974 197.492 354.629 195.776 352.441C194.121 350.219 192.068 348.4 189.616 346.984C186.613 345.25 184.131 344.451 182.169 344.586C180.208 344.721 178.737 345.631 177.756 347.318C176.837 349.04 176.377 351.415 176.377 354.442C176.377 355.991 175.948 357.046 175.09 357.607C174.232 358.097 173.098 357.935 171.689 357.121C170.34 356.343 169.206 355.195 168.287 353.679C167.429 352.127 167 350.577 167 349.028C167 344.1 167.919 340.301 169.758 337.631C171.658 334.997 174.293 333.597 177.664 333.431C181.097 333.23 185.081 334.439 189.616 337.057C193.6 339.357 197.124 342.378 200.188 346.118C203.314 349.824 205.766 353.915 207.543 358.391C209.382 362.831 210.301 367.34 210.301 371.916C210.301 375.859 209.75 378.955 208.646 381.204C207.543 383.454 206.042 385.192 204.142 386.418C202.242 387.574 200.066 388.571 197.614 389.408C196.021 389.967 194.918 391.266 194.305 393.306C193.692 395.275 193.385 396.999 193.385 398.478C193.385 400.026 192.956 401.081 192.098 401.642C191.24 402.132 190.106 401.97 188.697 401.156ZM188.88 425.011C187.164 424.02 185.663 422.449 184.376 420.298C183.15 418.112 182.537 416.033 182.537 414.062C182.537 412.02 183.15 410.649 184.376 409.949C185.663 409.214 187.164 409.341 188.88 410.332C190.658 411.358 192.159 412.965 193.385 415.151C194.672 417.302 195.316 419.398 195.316 421.44C195.316 423.411 194.672 424.765 193.385 425.5C192.159 426.2 190.658 426.037 188.88 425.011Z" fill="#191919" stroke="#191919" stroke-width="3"/>
<path d="M343.971 361.715C343.971 363.272 343.544 364.828 342.691 366.382C341.776 367.901 340.648 369.048 339.307 369.822C336.929 371.195 334.338 371.983 331.533 372.187C328.667 372.426 326.137 371.693 323.942 369.988C322.479 368.851 321.046 367.874 319.644 367.056C318.18 366.202 316.534 365.808 314.705 365.873C312.815 365.903 310.529 366.692 307.846 368.241C305.895 369.367 304.066 370.954 302.359 373.001C300.651 375.049 299.28 377.362 298.243 379.942C297.146 382.487 296.597 385.174 296.597 388.005C296.597 391.473 297.146 394.023 298.243 395.654C299.341 397.285 300.865 398.103 302.816 398.109C304.767 398.044 307.053 397.255 309.675 395.741C311.016 394.967 312.144 394.811 313.059 395.274C313.913 395.772 314.339 396.835 314.339 398.462C314.339 400.019 313.913 401.575 313.059 403.129C312.144 404.648 311.016 405.795 309.675 406.569C305.407 409.033 301.657 410.137 298.426 409.879C295.195 409.551 292.664 407.969 290.835 405.132C288.945 402.26 288 398.206 288 392.969C288 388.369 288.854 383.806 290.561 379.282C292.207 374.722 294.524 370.554 297.511 366.777C300.438 362.964 303.883 359.913 307.846 357.625C311.26 355.654 314.217 354.584 316.717 354.414C319.217 354.245 321.473 354.676 323.485 355.709C325.436 356.776 327.387 358.162 329.338 359.866C330.619 360.967 332.295 361.273 334.368 360.784C336.38 360.33 338.026 359.733 339.307 358.994C340.648 358.22 341.776 358.064 342.691 358.527C343.544 359.025 343.971 360.088 343.971 361.715ZM364.212 351.655C364.212 353.636 363.603 355.722 362.383 357.913C361.103 360.067 359.609 361.637 357.902 362.623C356.134 363.644 354.64 363.799 353.421 363.087C352.14 362.34 351.5 360.976 351.5 358.994C351.5 356.942 352.14 354.838 353.421 352.684C354.64 350.493 356.134 348.888 357.902 347.867C359.609 346.881 361.103 346.762 362.383 347.509C363.603 348.221 364.212 349.602 364.212 351.655Z" fill="#191919" stroke="#191919" stroke-width="3"/>
</g>
<defs>
<clipPath id="clip0_64_73">
<rect width="512" height="512" fill="white"/>
</clipPath>
</defs>
</svg>
